<mxfile host="Electron" modified="2025-02-16T04:35:15.648Z" agent="Mozilla/5.0 (Macintosh; Intel Mac OS X 10_15_7) AppleWebKit/537.36 (KHTML, like Gecko) draw.io/24.4.8 Chrome/124.0.6367.207 Electron/30.0.6 Safari/537.36" etag="Zhk_PNPnrmoo6PYG04Ce" version="24.4.8" type="device" pages="4">
  <diagram name="if_grep" id="RzaIaKQiEWzyWalgboSa">
    <mxGraphModel dx="951" dy="597" grid="1" gridSize="10" guides="1" tooltips="1" connect="1" arrows="1" fold="1" page="1" pageScale="1" pageWidth="827" pageHeight="1169" math="0" shadow="0">
      <root>
        <mxCell id="0" />
        <mxCell id="1" parent="0" />
        <mxCell id="QNryAsedBH9kvM18OvDT-1" value="" style="rounded=0;whiteSpace=wrap;html=1;" vertex="1" parent="1">
          <mxGeometry x="40" width="680" height="280" as="geometry" />
        </mxCell>
        <mxCell id="q6hAmMUZD53YPu_rHfrL-1" value="composeApp" style="shape=module;align=left;spacingLeft=20;align=center;verticalAlign=top;whiteSpace=wrap;html=1;" vertex="1" parent="1">
          <mxGeometry x="80" y="40" width="240" height="70" as="geometry" />
        </mxCell>
        <mxCell id="q6hAmMUZD53YPu_rHfrL-2" value="shared" style="shape=module;align=left;spacingLeft=20;align=center;verticalAlign=top;whiteSpace=wrap;html=1;" vertex="1" parent="1">
          <mxGeometry x="400" y="40" width="280" height="160" as="geometry" />
        </mxCell>
        <mxCell id="q6hAmMUZD53YPu_rHfrL-3" value="ios" style="shape=module;align=left;spacingLeft=20;align=center;verticalAlign=top;whiteSpace=wrap;html=1;" vertex="1" parent="1">
          <mxGeometry x="80" y="160" width="240" height="70" as="geometry" />
        </mxCell>
        <mxCell id="q6hAmMUZD53YPu_rHfrL-8" value="Use" style="endArrow=open;endSize=12;dashed=1;html=1;rounded=0;exitX=1;exitY=0.5;exitDx=0;exitDy=0;entryX=0;entryY=0.25;entryDx=0;entryDy=0;" edge="1" parent="1" source="q6hAmMUZD53YPu_rHfrL-1" target="q6hAmMUZD53YPu_rHfrL-12">
          <mxGeometry width="160" relative="1" as="geometry">
            <mxPoint x="310" y="150" as="sourcePoint" />
            <mxPoint x="440" y="141.5" as="targetPoint" />
          </mxGeometry>
        </mxCell>
        <mxCell id="q6hAmMUZD53YPu_rHfrL-9" value="Use" style="endArrow=open;endSize=12;dashed=1;html=1;rounded=0;exitX=1;exitY=0.5;exitDx=0;exitDy=0;entryX=0;entryY=0.5;entryDx=0;entryDy=0;" edge="1" parent="1" source="q6hAmMUZD53YPu_rHfrL-3" target="q6hAmMUZD53YPu_rHfrL-15">
          <mxGeometry width="160" relative="1" as="geometry">
            <mxPoint x="350" y="105" as="sourcePoint" />
            <mxPoint x="440" y="158.5" as="targetPoint" />
          </mxGeometry>
        </mxCell>
        <mxCell id="q6hAmMUZD53YPu_rHfrL-10" value="GrepViewModel" style="swimlane;fontStyle=1;align=center;verticalAlign=top;childLayout=stackLayout;horizontal=1;startSize=26;horizontalStack=0;resizeParent=1;resizeParentMax=0;resizeLast=0;collapsible=1;marginBottom=0;whiteSpace=wrap;html=1;" vertex="1" parent="1">
          <mxGeometry x="130" y="70" width="160" height="34" as="geometry" />
        </mxCell>
        <mxCell id="q6hAmMUZD53YPu_rHfrL-11" value="" style="line;strokeWidth=1;fillColor=none;align=left;verticalAlign=middle;spacingTop=-1;spacingLeft=3;spacingRight=3;rotatable=0;labelPosition=right;points=[];portConstraint=eastwest;strokeColor=inherit;" vertex="1" parent="q6hAmMUZD53YPu_rHfrL-10">
          <mxGeometry y="26" width="160" height="8" as="geometry" />
        </mxCell>
        <mxCell id="q6hAmMUZD53YPu_rHfrL-12" value="GrepShared" style="swimlane;fontStyle=1;align=center;verticalAlign=top;childLayout=stackLayout;horizontal=1;startSize=26;horizontalStack=0;resizeParent=1;resizeParentMax=0;resizeLast=0;collapsible=1;marginBottom=0;whiteSpace=wrap;html=1;" vertex="1" parent="1">
          <mxGeometry x="450" y="94" width="160" height="52" as="geometry" />
        </mxCell>
        <mxCell id="q6hAmMUZD53YPu_rHfrL-15" value="+ grep(...): Unit" style="text;strokeColor=none;fillColor=none;align=left;verticalAlign=top;spacingLeft=4;spacingRight=4;overflow=hidden;rotatable=0;points=[[0,0.5],[1,0.5]];portConstraint=eastwest;whiteSpace=wrap;html=1;" vertex="1" parent="q6hAmMUZD53YPu_rHfrL-12">
          <mxGeometry y="26" width="160" height="26" as="geometry" />
        </mxCell>
        <mxCell id="q6hAmMUZD53YPu_rHfrL-16" value="ViewModel.ContentView" style="swimlane;fontStyle=1;align=center;verticalAlign=top;childLayout=stackLayout;horizontal=1;startSize=26;horizontalStack=0;resizeParent=1;resizeParentMax=0;resizeLast=0;collapsible=1;marginBottom=0;whiteSpace=wrap;html=1;" vertex="1" parent="1">
          <mxGeometry x="130" y="190" width="160" height="34" as="geometry" />
        </mxCell>
        <mxCell id="q6hAmMUZD53YPu_rHfrL-17" value="" style="line;strokeWidth=1;fillColor=none;align=left;verticalAlign=middle;spacingTop=-1;spacingLeft=3;spacingRight=3;rotatable=0;labelPosition=right;points=[];portConstraint=eastwest;strokeColor=inherit;" vertex="1" parent="q6hAmMUZD53YPu_rHfrL-16">
          <mxGeometry y="26" width="160" height="8" as="geometry" />
        </mxCell>
      </root>
    </mxGraphModel>
  </diagram>
  <diagram id="hBZKzyjd2f3BzscMw3kQ" name="if_usecase">
    <mxGraphModel dx="1129" dy="464" grid="1" gridSize="10" guides="1" tooltips="1" connect="1" arrows="1" fold="1" page="1" pageScale="1" pageWidth="827" pageHeight="1169" math="0" shadow="0">
      <root>
        <mxCell id="0" />
        <mxCell id="1" parent="0" />
        <mxCell id="3Ayo0XlqxIeDc6Itqvx2-1" value="" style="rounded=0;whiteSpace=wrap;html=1;" vertex="1" parent="1">
          <mxGeometry x="40" width="1000" height="280" as="geometry" />
        </mxCell>
        <mxCell id="jaY5OkbTvhgfmhg3v1kl-1" value="composeApp" style="shape=module;align=left;spacingLeft=20;align=center;verticalAlign=top;whiteSpace=wrap;html=1;" vertex="1" parent="1">
          <mxGeometry x="80" y="40" width="240" height="70" as="geometry" />
        </mxCell>
        <mxCell id="jaY5OkbTvhgfmhg3v1kl-2" value="shared" style="shape=module;align=left;spacingLeft=20;align=center;verticalAlign=top;whiteSpace=wrap;html=1;" vertex="1" parent="1">
          <mxGeometry x="400" y="40" width="600" height="190" as="geometry" />
        </mxCell>
        <mxCell id="jaY5OkbTvhgfmhg3v1kl-3" value="ios" style="shape=module;align=left;spacingLeft=20;align=center;verticalAlign=top;whiteSpace=wrap;html=1;" vertex="1" parent="1">
          <mxGeometry x="80" y="160" width="240" height="70" as="geometry" />
        </mxCell>
        <mxCell id="jaY5OkbTvhgfmhg3v1kl-4" value="Use" style="endArrow=open;endSize=12;dashed=1;html=1;rounded=0;exitX=1;exitY=0.5;exitDx=0;exitDy=0;entryX=0;entryY=0.25;entryDx=0;entryDy=0;" edge="1" parent="1" source="jaY5OkbTvhgfmhg3v1kl-1" target="jaY5OkbTvhgfmhg3v1kl-12">
          <mxGeometry width="160" relative="1" as="geometry">
            <mxPoint x="310" y="150" as="sourcePoint" />
            <mxPoint x="440" y="141.5" as="targetPoint" />
          </mxGeometry>
        </mxCell>
        <mxCell id="jaY5OkbTvhgfmhg3v1kl-5" value="Use" style="endArrow=open;endSize=12;dashed=1;html=1;rounded=0;exitX=1;exitY=0.5;exitDx=0;exitDy=0;entryX=0;entryY=0.75;entryDx=0;entryDy=0;" edge="1" parent="1" source="jaY5OkbTvhgfmhg3v1kl-3" target="jaY5OkbTvhgfmhg3v1kl-12">
          <mxGeometry width="160" relative="1" as="geometry">
            <mxPoint x="350" y="105" as="sourcePoint" />
            <mxPoint x="440" y="158.5" as="targetPoint" />
          </mxGeometry>
        </mxCell>
        <mxCell id="jaY5OkbTvhgfmhg3v1kl-6" value="RocketLaunchViewModel" style="swimlane;fontStyle=1;align=center;verticalAlign=top;childLayout=stackLayout;horizontal=1;startSize=26;horizontalStack=0;resizeParent=1;resizeParentMax=0;resizeLast=0;collapsible=1;marginBottom=0;whiteSpace=wrap;html=1;" vertex="1" parent="1">
          <mxGeometry x="130" y="70" width="160" height="34" as="geometry" />
        </mxCell>
        <mxCell id="jaY5OkbTvhgfmhg3v1kl-7" value="" style="line;strokeWidth=1;fillColor=none;align=left;verticalAlign=middle;spacingTop=-1;spacingLeft=3;spacingRight=3;rotatable=0;labelPosition=right;points=[];portConstraint=eastwest;strokeColor=inherit;" vertex="1" parent="jaY5OkbTvhgfmhg3v1kl-6">
          <mxGeometry y="26" width="160" height="8" as="geometry" />
        </mxCell>
        <mxCell id="jaY5OkbTvhgfmhg3v1kl-8" value="LoadRocketLaunchInfoUseCase" style="swimlane;fontStyle=1;align=center;verticalAlign=top;childLayout=stackLayout;horizontal=1;startSize=26;horizontalStack=0;resizeParent=1;resizeParentMax=0;resizeLast=0;collapsible=1;marginBottom=0;whiteSpace=wrap;html=1;" vertex="1" parent="1">
          <mxGeometry x="460" y="150" width="240" height="52" as="geometry" />
        </mxCell>
        <mxCell id="jaY5OkbTvhgfmhg3v1kl-9" value="+ invoke(...): Flow&amp;lt;String&amp;gt;" style="text;strokeColor=none;fillColor=none;align=left;verticalAlign=top;spacingLeft=4;spacingRight=4;overflow=hidden;rotatable=0;points=[[0,0.5],[1,0.5]];portConstraint=eastwest;whiteSpace=wrap;html=1;" vertex="1" parent="jaY5OkbTvhgfmhg3v1kl-8">
          <mxGeometry y="26" width="240" height="26" as="geometry" />
        </mxCell>
        <mxCell id="jaY5OkbTvhgfmhg3v1kl-10" value="ViewModel.ContentView" style="swimlane;fontStyle=1;align=center;verticalAlign=top;childLayout=stackLayout;horizontal=1;startSize=26;horizontalStack=0;resizeParent=1;resizeParentMax=0;resizeLast=0;collapsible=1;marginBottom=0;whiteSpace=wrap;html=1;" vertex="1" parent="1">
          <mxGeometry x="130" y="190" width="160" height="34" as="geometry" />
        </mxCell>
        <mxCell id="jaY5OkbTvhgfmhg3v1kl-11" value="" style="line;strokeWidth=1;fillColor=none;align=left;verticalAlign=middle;spacingTop=-1;spacingLeft=3;spacingRight=3;rotatable=0;labelPosition=right;points=[];portConstraint=eastwest;strokeColor=inherit;" vertex="1" parent="jaY5OkbTvhgfmhg3v1kl-10">
          <mxGeometry y="26" width="160" height="8" as="geometry" />
        </mxCell>
        <mxCell id="jaY5OkbTvhgfmhg3v1kl-12" value="LoadRocketLaunchInfoUseCaseContract" style="swimlane;fontStyle=1;align=center;verticalAlign=top;childLayout=stackLayout;horizontal=1;startSize=26;horizontalStack=0;resizeParent=1;resizeParentMax=0;resizeLast=0;collapsible=1;marginBottom=0;whiteSpace=wrap;html=1;" vertex="1" parent="1">
          <mxGeometry x="450" y="76" width="260" height="34" as="geometry" />
        </mxCell>
        <mxCell id="jaY5OkbTvhgfmhg3v1kl-13" value="" style="line;strokeWidth=1;fillColor=none;align=left;verticalAlign=middle;spacingTop=-1;spacingLeft=3;spacingRight=3;rotatable=0;labelPosition=right;points=[];portConstraint=eastwest;strokeColor=inherit;" vertex="1" parent="jaY5OkbTvhgfmhg3v1kl-12">
          <mxGeometry y="26" width="260" height="8" as="geometry" />
        </mxCell>
        <mxCell id="jaY5OkbTvhgfmhg3v1kl-14" value="" style="endArrow=block;dashed=1;endFill=0;endSize=12;html=1;rounded=0;entryX=0.5;entryY=1;entryDx=0;entryDy=0;" edge="1" parent="1" source="jaY5OkbTvhgfmhg3v1kl-8" target="jaY5OkbTvhgfmhg3v1kl-12">
          <mxGeometry width="160" relative="1" as="geometry">
            <mxPoint x="470" y="290" as="sourcePoint" />
            <mxPoint x="630" y="290" as="targetPoint" />
          </mxGeometry>
        </mxCell>
        <mxCell id="jaY5OkbTvhgfmhg3v1kl-15" value="RocketRepository" style="swimlane;fontStyle=1;align=center;verticalAlign=top;childLayout=stackLayout;horizontal=1;startSize=26;horizontalStack=0;resizeParent=1;resizeParentMax=0;resizeLast=0;collapsible=1;marginBottom=0;whiteSpace=wrap;html=1;" vertex="1" parent="1">
          <mxGeometry x="800" y="150" width="170" height="52" as="geometry" />
        </mxCell>
        <mxCell id="jaY5OkbTvhgfmhg3v1kl-16" value="+ invoke(...): Flow&amp;lt;String&amp;gt;" style="text;strokeColor=none;fillColor=none;align=left;verticalAlign=top;spacingLeft=4;spacingRight=4;overflow=hidden;rotatable=0;points=[[0,0.5],[1,0.5]];portConstraint=eastwest;whiteSpace=wrap;html=1;" vertex="1" parent="jaY5OkbTvhgfmhg3v1kl-15">
          <mxGeometry y="26" width="170" height="26" as="geometry" />
        </mxCell>
        <mxCell id="jaY5OkbTvhgfmhg3v1kl-17" value="RocketRepositoryContract" style="swimlane;fontStyle=1;align=center;verticalAlign=top;childLayout=stackLayout;horizontal=1;startSize=26;horizontalStack=0;resizeParent=1;resizeParentMax=0;resizeLast=0;collapsible=1;marginBottom=0;whiteSpace=wrap;html=1;" vertex="1" parent="1">
          <mxGeometry x="800" y="76" width="170" height="34" as="geometry" />
        </mxCell>
        <mxCell id="jaY5OkbTvhgfmhg3v1kl-18" value="" style="line;strokeWidth=1;fillColor=none;align=left;verticalAlign=middle;spacingTop=-1;spacingLeft=3;spacingRight=3;rotatable=0;labelPosition=right;points=[];portConstraint=eastwest;strokeColor=inherit;" vertex="1" parent="jaY5OkbTvhgfmhg3v1kl-17">
          <mxGeometry y="26" width="170" height="8" as="geometry" />
        </mxCell>
        <mxCell id="jaY5OkbTvhgfmhg3v1kl-19" value="" style="endArrow=block;dashed=1;endFill=0;endSize=12;html=1;rounded=0;entryX=0.5;entryY=1;entryDx=0;entryDy=0;" edge="1" parent="1" source="jaY5OkbTvhgfmhg3v1kl-15" target="jaY5OkbTvhgfmhg3v1kl-17">
          <mxGeometry width="160" relative="1" as="geometry">
            <mxPoint x="820" y="290" as="sourcePoint" />
            <mxPoint x="980" y="290" as="targetPoint" />
          </mxGeometry>
        </mxCell>
        <mxCell id="jaY5OkbTvhgfmhg3v1kl-20" value="Use" style="endArrow=open;endSize=12;dashed=1;html=1;rounded=0;exitX=1;exitY=0.25;exitDx=0;exitDy=0;entryX=0;entryY=0.5;entryDx=0;entryDy=0;" edge="1" parent="1" source="jaY5OkbTvhgfmhg3v1kl-8" target="jaY5OkbTvhgfmhg3v1kl-17">
          <mxGeometry width="160" relative="1" as="geometry">
            <mxPoint x="710" y="330" as="sourcePoint" />
            <mxPoint x="870" y="330" as="targetPoint" />
          </mxGeometry>
        </mxCell>
      </root>
    </mxGraphModel>
  </diagram>
  <diagram id="mOhKhrMZGtOEBroIsM7T" name="if_viewmodel">
    <mxGraphModel dx="951" dy="1766" grid="1" gridSize="10" guides="1" tooltips="1" connect="1" arrows="1" fold="1" page="1" pageScale="1" pageWidth="827" pageHeight="1169" math="0" shadow="0">
      <root>
        <mxCell id="0" />
        <mxCell id="1" parent="0" />
        <mxCell id="qxVTyi2TgpjDtXjAVBR1-1" value="" style="rounded=0;whiteSpace=wrap;html=1;" vertex="1" parent="1">
          <mxGeometry x="40" y="-120" width="1000" height="480" as="geometry" />
        </mxCell>
        <mxCell id="IUsTRlKpmxxPg6vhgVCP-1" value="composeApp" style="shape=module;align=left;spacingLeft=20;align=center;verticalAlign=top;whiteSpace=wrap;html=1;" vertex="1" parent="1">
          <mxGeometry x="80" y="40" width="240" height="70" as="geometry" />
        </mxCell>
        <mxCell id="IUsTRlKpmxxPg6vhgVCP-2" value="shared" style="shape=module;align=left;spacingLeft=20;align=center;verticalAlign=top;whiteSpace=wrap;html=1;" vertex="1" parent="1">
          <mxGeometry x="400" y="-80" width="600" height="400" as="geometry" />
        </mxCell>
        <mxCell id="IUsTRlKpmxxPg6vhgVCP-3" value="ios" style="shape=module;align=left;spacingLeft=20;align=center;verticalAlign=top;whiteSpace=wrap;html=1;" vertex="1" parent="1">
          <mxGeometry x="80" y="160" width="240" height="70" as="geometry" />
        </mxCell>
        <mxCell id="IUsTRlKpmxxPg6vhgVCP-4" value="Use" style="endArrow=open;endSize=12;dashed=1;html=1;rounded=0;exitX=1;exitY=0.5;exitDx=0;exitDy=0;entryX=0;entryY=0.25;entryDx=0;entryDy=0;" edge="1" parent="1" source="IUsTRlKpmxxPg6vhgVCP-1" target="IUsTRlKpmxxPg6vhgVCP-27">
          <mxGeometry width="160" relative="1" as="geometry">
            <mxPoint x="310" y="150" as="sourcePoint" />
            <mxPoint x="495" y="84.5" as="targetPoint" />
          </mxGeometry>
        </mxCell>
        <mxCell id="IUsTRlKpmxxPg6vhgVCP-5" value="Use" style="endArrow=open;endSize=12;dashed=1;html=1;rounded=0;exitX=1;exitY=0.5;exitDx=0;exitDy=0;entryX=0;entryY=0.5;entryDx=0;entryDy=0;" edge="1" parent="1" source="IUsTRlKpmxxPg6vhgVCP-3" target="IUsTRlKpmxxPg6vhgVCP-28">
          <mxGeometry width="160" relative="1" as="geometry">
            <mxPoint x="350" y="105" as="sourcePoint" />
            <mxPoint x="495" y="101.5" as="targetPoint" />
          </mxGeometry>
        </mxCell>
        <mxCell id="IUsTRlKpmxxPg6vhgVCP-6" value="GreetingScreen" style="swimlane;fontStyle=1;align=center;verticalAlign=top;childLayout=stackLayout;horizontal=1;startSize=26;horizontalStack=0;resizeParent=1;resizeParentMax=0;resizeLast=0;collapsible=1;marginBottom=0;whiteSpace=wrap;html=1;" vertex="1" parent="1">
          <mxGeometry x="130" y="70" width="160" height="34" as="geometry" />
        </mxCell>
        <mxCell id="IUsTRlKpmxxPg6vhgVCP-7" value="" style="line;strokeWidth=1;fillColor=none;align=left;verticalAlign=middle;spacingTop=-1;spacingLeft=3;spacingRight=3;rotatable=0;labelPosition=right;points=[];portConstraint=eastwest;strokeColor=inherit;" vertex="1" parent="IUsTRlKpmxxPg6vhgVCP-6">
          <mxGeometry y="26" width="160" height="8" as="geometry" />
        </mxCell>
        <mxCell id="IUsTRlKpmxxPg6vhgVCP-8" value="CreatePhrasesUseCase" style="swimlane;fontStyle=1;align=center;verticalAlign=top;childLayout=stackLayout;horizontal=1;startSize=26;horizontalStack=0;resizeParent=1;resizeParentMax=0;resizeLast=0;collapsible=1;marginBottom=0;whiteSpace=wrap;html=1;" vertex="1" parent="1">
          <mxGeometry x="460" y="234" width="240" height="52" as="geometry" />
        </mxCell>
        <mxCell id="IUsTRlKpmxxPg6vhgVCP-9" value="+ invoke(...): &amp;nbsp;List&amp;lt;String&amp;gt;" style="text;strokeColor=none;fillColor=none;align=left;verticalAlign=top;spacingLeft=4;spacingRight=4;overflow=hidden;rotatable=0;points=[[0,0.5],[1,0.5]];portConstraint=eastwest;whiteSpace=wrap;html=1;" vertex="1" parent="IUsTRlKpmxxPg6vhgVCP-8">
          <mxGeometry y="26" width="240" height="26" as="geometry" />
        </mxCell>
        <mxCell id="IUsTRlKpmxxPg6vhgVCP-10" value="ViewModel.ContentView" style="swimlane;fontStyle=1;align=center;verticalAlign=top;childLayout=stackLayout;horizontal=1;startSize=26;horizontalStack=0;resizeParent=1;resizeParentMax=0;resizeLast=0;collapsible=1;marginBottom=0;whiteSpace=wrap;html=1;" vertex="1" parent="1">
          <mxGeometry x="130" y="190" width="160" height="34" as="geometry" />
        </mxCell>
        <mxCell id="IUsTRlKpmxxPg6vhgVCP-11" value="" style="line;strokeWidth=1;fillColor=none;align=left;verticalAlign=middle;spacingTop=-1;spacingLeft=3;spacingRight=3;rotatable=0;labelPosition=right;points=[];portConstraint=eastwest;strokeColor=inherit;" vertex="1" parent="IUsTRlKpmxxPg6vhgVCP-10">
          <mxGeometry y="26" width="160" height="8" as="geometry" />
        </mxCell>
        <mxCell id="IUsTRlKpmxxPg6vhgVCP-12" value="CreatePhrasesUseCaseContract" style="swimlane;fontStyle=1;align=center;verticalAlign=top;childLayout=stackLayout;horizontal=1;startSize=26;horizontalStack=0;resizeParent=1;resizeParentMax=0;resizeLast=0;collapsible=1;marginBottom=0;whiteSpace=wrap;html=1;" vertex="1" parent="1">
          <mxGeometry x="450" y="160" width="260" height="34" as="geometry" />
        </mxCell>
        <mxCell id="IUsTRlKpmxxPg6vhgVCP-13" value="" style="line;strokeWidth=1;fillColor=none;align=left;verticalAlign=middle;spacingTop=-1;spacingLeft=3;spacingRight=3;rotatable=0;labelPosition=right;points=[];portConstraint=eastwest;strokeColor=inherit;" vertex="1" parent="IUsTRlKpmxxPg6vhgVCP-12">
          <mxGeometry y="26" width="260" height="8" as="geometry" />
        </mxCell>
        <mxCell id="IUsTRlKpmxxPg6vhgVCP-14" value="" style="endArrow=block;dashed=1;endFill=0;endSize=12;html=1;rounded=0;entryX=0.5;entryY=1;entryDx=0;entryDy=0;" edge="1" parent="1" source="IUsTRlKpmxxPg6vhgVCP-8" target="IUsTRlKpmxxPg6vhgVCP-12">
          <mxGeometry width="160" relative="1" as="geometry">
            <mxPoint x="470" y="374" as="sourcePoint" />
            <mxPoint x="630" y="374" as="targetPoint" />
          </mxGeometry>
        </mxCell>
        <mxCell id="IUsTRlKpmxxPg6vhgVCP-15" value="PlatformRepository" style="swimlane;fontStyle=1;align=center;verticalAlign=top;childLayout=stackLayout;horizontal=1;startSize=26;horizontalStack=0;resizeParent=1;resizeParentMax=0;resizeLast=0;collapsible=1;marginBottom=0;whiteSpace=wrap;html=1;" vertex="1" parent="1">
          <mxGeometry x="800" y="234" width="170" height="52" as="geometry" />
        </mxCell>
        <mxCell id="IUsTRlKpmxxPg6vhgVCP-16" value="+ getPlatformName():&amp;nbsp; String" style="text;strokeColor=none;fillColor=none;align=left;verticalAlign=top;spacingLeft=4;spacingRight=4;overflow=hidden;rotatable=0;points=[[0,0.5],[1,0.5]];portConstraint=eastwest;whiteSpace=wrap;html=1;" vertex="1" parent="IUsTRlKpmxxPg6vhgVCP-15">
          <mxGeometry y="26" width="170" height="26" as="geometry" />
        </mxCell>
        <mxCell id="IUsTRlKpmxxPg6vhgVCP-17" value="PlatformRepositoryContract" style="swimlane;fontStyle=1;align=center;verticalAlign=top;childLayout=stackLayout;horizontal=1;startSize=26;horizontalStack=0;resizeParent=1;resizeParentMax=0;resizeLast=0;collapsible=1;marginBottom=0;whiteSpace=wrap;html=1;" vertex="1" parent="1">
          <mxGeometry x="800" y="160" width="170" height="34" as="geometry" />
        </mxCell>
        <mxCell id="IUsTRlKpmxxPg6vhgVCP-18" value="" style="line;strokeWidth=1;fillColor=none;align=left;verticalAlign=middle;spacingTop=-1;spacingLeft=3;spacingRight=3;rotatable=0;labelPosition=right;points=[];portConstraint=eastwest;strokeColor=inherit;" vertex="1" parent="IUsTRlKpmxxPg6vhgVCP-17">
          <mxGeometry y="26" width="170" height="8" as="geometry" />
        </mxCell>
        <mxCell id="IUsTRlKpmxxPg6vhgVCP-19" value="" style="endArrow=block;dashed=1;endFill=0;endSize=12;html=1;rounded=0;entryX=0.5;entryY=1;entryDx=0;entryDy=0;" edge="1" parent="1" source="IUsTRlKpmxxPg6vhgVCP-15" target="IUsTRlKpmxxPg6vhgVCP-17">
          <mxGeometry width="160" relative="1" as="geometry">
            <mxPoint x="820" y="374" as="sourcePoint" />
            <mxPoint x="980" y="374" as="targetPoint" />
          </mxGeometry>
        </mxCell>
        <mxCell id="IUsTRlKpmxxPg6vhgVCP-20" value="Use" style="endArrow=open;endSize=12;dashed=1;html=1;rounded=0;exitX=1;exitY=0.25;exitDx=0;exitDy=0;entryX=0;entryY=0.5;entryDx=0;entryDy=0;" edge="1" parent="1" source="IUsTRlKpmxxPg6vhgVCP-8" target="IUsTRlKpmxxPg6vhgVCP-17">
          <mxGeometry width="160" relative="1" as="geometry">
            <mxPoint x="710" y="414" as="sourcePoint" />
            <mxPoint x="870" y="414" as="targetPoint" />
          </mxGeometry>
        </mxCell>
        <mxCell id="IUsTRlKpmxxPg6vhgVCP-23" value="Use" style="endArrow=open;endSize=12;dashed=1;html=1;rounded=0;exitX=0.5;exitY=1;exitDx=0;exitDy=0;" edge="1" parent="1" target="IUsTRlKpmxxPg6vhgVCP-12">
          <mxGeometry width="160" relative="1" as="geometry">
            <mxPoint x="580" y="110" as="sourcePoint" />
            <mxPoint x="810" y="217" as="targetPoint" />
          </mxGeometry>
        </mxCell>
        <mxCell id="IUsTRlKpmxxPg6vhgVCP-24" value="CoroutineViewModel" style="swimlane;fontStyle=1;align=center;verticalAlign=top;childLayout=stackLayout;horizontal=1;startSize=26;horizontalStack=0;resizeParent=1;resizeParentMax=0;resizeLast=0;collapsible=1;marginBottom=0;whiteSpace=wrap;html=1;" vertex="1" parent="1">
          <mxGeometry x="495" y="-46" width="170" height="34" as="geometry" />
        </mxCell>
        <mxCell id="IUsTRlKpmxxPg6vhgVCP-25" value="" style="line;strokeWidth=1;fillColor=none;align=left;verticalAlign=middle;spacingTop=-1;spacingLeft=3;spacingRight=3;rotatable=0;labelPosition=right;points=[];portConstraint=eastwest;strokeColor=inherit;" vertex="1" parent="IUsTRlKpmxxPg6vhgVCP-24">
          <mxGeometry y="26" width="170" height="8" as="geometry" />
        </mxCell>
        <mxCell id="IUsTRlKpmxxPg6vhgVCP-26" value="" style="endArrow=block;dashed=1;endFill=0;endSize=12;html=1;rounded=0;entryX=0.5;entryY=1;entryDx=0;entryDy=0;exitX=0.5;exitY=0;exitDx=0;exitDy=0;" edge="1" parent="1" source="IUsTRlKpmxxPg6vhgVCP-27" target="IUsTRlKpmxxPg6vhgVCP-24">
          <mxGeometry width="160" relative="1" as="geometry">
            <mxPoint x="580" y="30" as="sourcePoint" />
            <mxPoint x="590" y="158" as="targetPoint" />
          </mxGeometry>
        </mxCell>
        <mxCell id="IUsTRlKpmxxPg6vhgVCP-27" value="GreetingSharedViewModel" style="swimlane;fontStyle=1;align=center;verticalAlign=top;childLayout=stackLayout;horizontal=1;startSize=26;horizontalStack=0;resizeParent=1;resizeParentMax=0;resizeLast=0;collapsible=1;marginBottom=0;whiteSpace=wrap;html=1;" vertex="1" parent="1">
          <mxGeometry x="450" y="24" width="260" height="86" as="geometry" />
        </mxCell>
        <mxCell id="IUsTRlKpmxxPg6vhgVCP-28" value="+ loadPhrases(): Unit" style="text;strokeColor=none;fillColor=none;align=left;verticalAlign=top;spacingLeft=4;spacingRight=4;overflow=hidden;rotatable=0;points=[[0,0.5],[1,0.5]];portConstraint=eastwest;whiteSpace=wrap;html=1;" vertex="1" parent="IUsTRlKpmxxPg6vhgVCP-27">
          <mxGeometry y="26" width="260" height="26" as="geometry" />
        </mxCell>
        <mxCell id="IUsTRlKpmxxPg6vhgVCP-29" value="" style="line;strokeWidth=1;fillColor=none;align=left;verticalAlign=middle;spacingTop=-1;spacingLeft=3;spacingRight=3;rotatable=0;labelPosition=right;points=[];portConstraint=eastwest;strokeColor=inherit;" vertex="1" parent="IUsTRlKpmxxPg6vhgVCP-27">
          <mxGeometry y="52" width="260" height="8" as="geometry" />
        </mxCell>
        <mxCell id="IUsTRlKpmxxPg6vhgVCP-30" value="+ observePhrases((List&amp;lt;String&amp;gt;) -&amp;gt; Unit): Unit" style="text;strokeColor=none;fillColor=none;align=left;verticalAlign=top;spacingLeft=4;spacingRight=4;overflow=hidden;rotatable=0;points=[[0,0.5],[1,0.5]];portConstraint=eastwest;whiteSpace=wrap;html=1;" vertex="1" parent="IUsTRlKpmxxPg6vhgVCP-27">
          <mxGeometry y="60" width="260" height="26" as="geometry" />
        </mxCell>
        <mxCell id="IUsTRlKpmxxPg6vhgVCP-31" value="Android 用" style="shape=note;whiteSpace=wrap;html=1;backgroundOutline=1;darkOpacity=0.05;size=12;" vertex="1" parent="1">
          <mxGeometry x="760" y="-46" width="80" height="56" as="geometry" />
        </mxCell>
        <mxCell id="IUsTRlKpmxxPg6vhgVCP-32" value="iOS 用" style="shape=note;whiteSpace=wrap;html=1;backgroundOutline=1;darkOpacity=0.05;size=12;" vertex="1" parent="1">
          <mxGeometry x="760" y="24" width="80" height="56" as="geometry" />
        </mxCell>
        <mxCell id="IUsTRlKpmxxPg6vhgVCP-33" value="" style="endArrow=none;html=1;rounded=0;exitX=0.923;exitY=0.5;exitDx=0;exitDy=0;exitPerimeter=0;entryX=0;entryY=0.5;entryDx=0;entryDy=0;entryPerimeter=0;" edge="1" parent="1" source="IUsTRlKpmxxPg6vhgVCP-28" target="IUsTRlKpmxxPg6vhgVCP-31">
          <mxGeometry width="50" height="50" relative="1" as="geometry">
            <mxPoint x="710" y="20" as="sourcePoint" />
            <mxPoint x="760" y="-30" as="targetPoint" />
          </mxGeometry>
        </mxCell>
        <mxCell id="IUsTRlKpmxxPg6vhgVCP-34" value="" style="endArrow=none;html=1;rounded=0;exitX=0.808;exitY=0.769;exitDx=0;exitDy=0;exitPerimeter=0;entryX=0;entryY=0.5;entryDx=0;entryDy=0;entryPerimeter=0;" edge="1" parent="1" target="IUsTRlKpmxxPg6vhgVCP-32">
          <mxGeometry width="50" height="50" relative="1" as="geometry">
            <mxPoint x="690" y="90" as="sourcePoint" />
            <mxPoint x="790" y="-10" as="targetPoint" />
          </mxGeometry>
        </mxCell>
      </root>
    </mxGraphModel>
  </diagram>
  <diagram id="IZwFQyfqXNFXW2y3iLr4" name="architecture">
    <mxGraphModel dx="1254" dy="1912" grid="1" gridSize="10" guides="1" tooltips="1" connect="1" arrows="1" fold="1" page="1" pageScale="1" pageWidth="827" pageHeight="1169" math="0" shadow="0">
      <root>
        <mxCell id="0" />
        <mxCell id="1" parent="0" />
        <mxCell id="Epo-QqoAf33ydnhm44_M-1" value="" style="rounded=0;whiteSpace=wrap;html=1;" vertex="1" parent="1">
          <mxGeometry x="40" y="-120" width="1250" height="480" as="geometry" />
        </mxCell>
        <mxCell id="Epo-QqoAf33ydnhm44_M-2" value="composeApp" style="shape=module;align=left;spacingLeft=20;align=center;verticalAlign=top;whiteSpace=wrap;html=1;" vertex="1" parent="1">
          <mxGeometry x="80" y="40" width="240" height="70" as="geometry" />
        </mxCell>
        <mxCell id="Epo-QqoAf33ydnhm44_M-3" value="shared" style="shape=module;align=left;spacingLeft=20;align=center;verticalAlign=top;whiteSpace=wrap;html=1;" vertex="1" parent="1">
          <mxGeometry x="400" y="-80" width="840" height="400" as="geometry" />
        </mxCell>
        <mxCell id="Epo-QqoAf33ydnhm44_M-4" value="ios" style="shape=module;align=left;spacingLeft=20;align=center;verticalAlign=top;whiteSpace=wrap;html=1;" vertex="1" parent="1">
          <mxGeometry x="80" y="160" width="240" height="70" as="geometry" />
        </mxCell>
        <mxCell id="Epo-QqoAf33ydnhm44_M-5" value="Use" style="endArrow=open;endSize=12;dashed=1;html=1;rounded=0;exitX=1;exitY=0.5;exitDx=0;exitDy=0;entryX=0;entryY=0.25;entryDx=0;entryDy=0;" edge="1" parent="1" source="Epo-QqoAf33ydnhm44_M-2" target="Epo-QqoAf33ydnhm44_M-26">
          <mxGeometry width="160" relative="1" as="geometry">
            <mxPoint x="310" y="150" as="sourcePoint" />
            <mxPoint x="495" y="84.5" as="targetPoint" />
          </mxGeometry>
        </mxCell>
        <mxCell id="Epo-QqoAf33ydnhm44_M-6" value="Use" style="endArrow=open;endSize=12;dashed=1;html=1;rounded=0;exitX=1;exitY=0.5;exitDx=0;exitDy=0;entryX=0;entryY=0.5;entryDx=0;entryDy=0;" edge="1" parent="1" source="Epo-QqoAf33ydnhm44_M-4" target="Epo-QqoAf33ydnhm44_M-27">
          <mxGeometry width="160" relative="1" as="geometry">
            <mxPoint x="350" y="105" as="sourcePoint" />
            <mxPoint x="495" y="101.5" as="targetPoint" />
          </mxGeometry>
        </mxCell>
        <mxCell id="Epo-QqoAf33ydnhm44_M-7" value="GreetingScreen" style="swimlane;fontStyle=1;align=center;verticalAlign=top;childLayout=stackLayout;horizontal=1;startSize=26;horizontalStack=0;resizeParent=1;resizeParentMax=0;resizeLast=0;collapsible=1;marginBottom=0;whiteSpace=wrap;html=1;" vertex="1" parent="1">
          <mxGeometry x="130" y="70" width="160" height="34" as="geometry" />
        </mxCell>
        <mxCell id="Epo-QqoAf33ydnhm44_M-8" value="" style="line;strokeWidth=1;fillColor=none;align=left;verticalAlign=middle;spacingTop=-1;spacingLeft=3;spacingRight=3;rotatable=0;labelPosition=right;points=[];portConstraint=eastwest;strokeColor=inherit;" vertex="1" parent="Epo-QqoAf33ydnhm44_M-7">
          <mxGeometry y="26" width="160" height="8" as="geometry" />
        </mxCell>
        <mxCell id="Epo-QqoAf33ydnhm44_M-9" value="CreatePhrasesUseCase" style="swimlane;fontStyle=1;align=center;verticalAlign=top;childLayout=stackLayout;horizontal=1;startSize=26;horizontalStack=0;resizeParent=1;resizeParentMax=0;resizeLast=0;collapsible=1;marginBottom=0;whiteSpace=wrap;html=1;" vertex="1" parent="1">
          <mxGeometry x="460" y="234" width="240" height="52" as="geometry" />
        </mxCell>
        <mxCell id="Epo-QqoAf33ydnhm44_M-10" value="+ invoke(...): &amp;nbsp;List&amp;lt;String&amp;gt;" style="text;strokeColor=none;fillColor=none;align=left;verticalAlign=top;spacingLeft=4;spacingRight=4;overflow=hidden;rotatable=0;points=[[0,0.5],[1,0.5]];portConstraint=eastwest;whiteSpace=wrap;html=1;" vertex="1" parent="Epo-QqoAf33ydnhm44_M-9">
          <mxGeometry y="26" width="240" height="26" as="geometry" />
        </mxCell>
        <mxCell id="Epo-QqoAf33ydnhm44_M-11" value="ViewModel.ContentView" style="swimlane;fontStyle=1;align=center;verticalAlign=top;childLayout=stackLayout;horizontal=1;startSize=26;horizontalStack=0;resizeParent=1;resizeParentMax=0;resizeLast=0;collapsible=1;marginBottom=0;whiteSpace=wrap;html=1;" vertex="1" parent="1">
          <mxGeometry x="130" y="190" width="160" height="34" as="geometry" />
        </mxCell>
        <mxCell id="Epo-QqoAf33ydnhm44_M-12" value="" style="line;strokeWidth=1;fillColor=none;align=left;verticalAlign=middle;spacingTop=-1;spacingLeft=3;spacingRight=3;rotatable=0;labelPosition=right;points=[];portConstraint=eastwest;strokeColor=inherit;" vertex="1" parent="Epo-QqoAf33ydnhm44_M-11">
          <mxGeometry y="26" width="160" height="8" as="geometry" />
        </mxCell>
        <mxCell id="Epo-QqoAf33ydnhm44_M-13" value="CreatePhrasesUseCaseContract" style="swimlane;fontStyle=1;align=center;verticalAlign=top;childLayout=stackLayout;horizontal=1;startSize=26;horizontalStack=0;resizeParent=1;resizeParentMax=0;resizeLast=0;collapsible=1;marginBottom=0;whiteSpace=wrap;html=1;" vertex="1" parent="1">
          <mxGeometry x="450" y="160" width="260" height="34" as="geometry" />
        </mxCell>
        <mxCell id="Epo-QqoAf33ydnhm44_M-14" value="" style="line;strokeWidth=1;fillColor=none;align=left;verticalAlign=middle;spacingTop=-1;spacingLeft=3;spacingRight=3;rotatable=0;labelPosition=right;points=[];portConstraint=eastwest;strokeColor=inherit;" vertex="1" parent="Epo-QqoAf33ydnhm44_M-13">
          <mxGeometry y="26" width="260" height="8" as="geometry" />
        </mxCell>
        <mxCell id="Epo-QqoAf33ydnhm44_M-15" value="" style="endArrow=block;dashed=1;endFill=0;endSize=12;html=1;rounded=0;entryX=0.5;entryY=1;entryDx=0;entryDy=0;" edge="1" parent="1" source="Epo-QqoAf33ydnhm44_M-9" target="Epo-QqoAf33ydnhm44_M-13">
          <mxGeometry width="160" relative="1" as="geometry">
            <mxPoint x="470" y="374" as="sourcePoint" />
            <mxPoint x="630" y="374" as="targetPoint" />
          </mxGeometry>
        </mxCell>
        <mxCell id="Epo-QqoAf33ydnhm44_M-16" value="PlatformRepository" style="swimlane;fontStyle=1;align=center;verticalAlign=top;childLayout=stackLayout;horizontal=1;startSize=26;horizontalStack=0;resizeParent=1;resizeParentMax=0;resizeLast=0;collapsible=1;marginBottom=0;whiteSpace=wrap;html=1;" vertex="1" parent="1">
          <mxGeometry x="800" y="234" width="170" height="52" as="geometry" />
        </mxCell>
        <mxCell id="Epo-QqoAf33ydnhm44_M-17" value="+ getPlatformName():&amp;nbsp; String" style="text;strokeColor=none;fillColor=none;align=left;verticalAlign=top;spacingLeft=4;spacingRight=4;overflow=hidden;rotatable=0;points=[[0,0.5],[1,0.5]];portConstraint=eastwest;whiteSpace=wrap;html=1;" vertex="1" parent="Epo-QqoAf33ydnhm44_M-16">
          <mxGeometry y="26" width="170" height="26" as="geometry" />
        </mxCell>
        <mxCell id="Epo-QqoAf33ydnhm44_M-18" value="PlatformRepositoryContract" style="swimlane;fontStyle=1;align=center;verticalAlign=top;childLayout=stackLayout;horizontal=1;startSize=26;horizontalStack=0;resizeParent=1;resizeParentMax=0;resizeLast=0;collapsible=1;marginBottom=0;whiteSpace=wrap;html=1;" vertex="1" parent="1">
          <mxGeometry x="800" y="160" width="170" height="34" as="geometry" />
        </mxCell>
        <mxCell id="Epo-QqoAf33ydnhm44_M-19" value="" style="line;strokeWidth=1;fillColor=none;align=left;verticalAlign=middle;spacingTop=-1;spacingLeft=3;spacingRight=3;rotatable=0;labelPosition=right;points=[];portConstraint=eastwest;strokeColor=inherit;" vertex="1" parent="Epo-QqoAf33ydnhm44_M-18">
          <mxGeometry y="26" width="170" height="8" as="geometry" />
        </mxCell>
        <mxCell id="Epo-QqoAf33ydnhm44_M-20" value="" style="endArrow=block;dashed=1;endFill=0;endSize=12;html=1;rounded=0;entryX=0.5;entryY=1;entryDx=0;entryDy=0;" edge="1" parent="1" source="Epo-QqoAf33ydnhm44_M-16" target="Epo-QqoAf33ydnhm44_M-18">
          <mxGeometry width="160" relative="1" as="geometry">
            <mxPoint x="820" y="374" as="sourcePoint" />
            <mxPoint x="980" y="374" as="targetPoint" />
          </mxGeometry>
        </mxCell>
        <mxCell id="Epo-QqoAf33ydnhm44_M-21" value="Use" style="endArrow=open;endSize=12;dashed=1;html=1;rounded=0;exitX=1;exitY=0.25;exitDx=0;exitDy=0;entryX=0;entryY=0.5;entryDx=0;entryDy=0;" edge="1" parent="1" source="Epo-QqoAf33ydnhm44_M-9" target="Epo-QqoAf33ydnhm44_M-18">
          <mxGeometry width="160" relative="1" as="geometry">
            <mxPoint x="710" y="414" as="sourcePoint" />
            <mxPoint x="870" y="414" as="targetPoint" />
          </mxGeometry>
        </mxCell>
        <mxCell id="Epo-QqoAf33ydnhm44_M-22" value="Use" style="endArrow=open;endSize=12;dashed=1;html=1;rounded=0;exitX=0.5;exitY=1;exitDx=0;exitDy=0;" edge="1" parent="1" target="Epo-QqoAf33ydnhm44_M-13">
          <mxGeometry width="160" relative="1" as="geometry">
            <mxPoint x="580" y="110" as="sourcePoint" />
            <mxPoint x="810" y="217" as="targetPoint" />
          </mxGeometry>
        </mxCell>
        <mxCell id="Epo-QqoAf33ydnhm44_M-23" value="CoroutineViewModel" style="swimlane;fontStyle=1;align=center;verticalAlign=top;childLayout=stackLayout;horizontal=1;startSize=26;horizontalStack=0;resizeParent=1;resizeParentMax=0;resizeLast=0;collapsible=1;marginBottom=0;whiteSpace=wrap;html=1;" vertex="1" parent="1">
          <mxGeometry x="495" y="-46" width="170" height="34" as="geometry" />
        </mxCell>
        <mxCell id="Epo-QqoAf33ydnhm44_M-24" value="" style="line;strokeWidth=1;fillColor=none;align=left;verticalAlign=middle;spacingTop=-1;spacingLeft=3;spacingRight=3;rotatable=0;labelPosition=right;points=[];portConstraint=eastwest;strokeColor=inherit;" vertex="1" parent="Epo-QqoAf33ydnhm44_M-23">
          <mxGeometry y="26" width="170" height="8" as="geometry" />
        </mxCell>
        <mxCell id="Epo-QqoAf33ydnhm44_M-25" value="" style="endArrow=block;dashed=1;endFill=0;endSize=12;html=1;rounded=0;entryX=0.5;entryY=1;entryDx=0;entryDy=0;exitX=0.5;exitY=0;exitDx=0;exitDy=0;" edge="1" parent="1" source="Epo-QqoAf33ydnhm44_M-26" target="Epo-QqoAf33ydnhm44_M-23">
          <mxGeometry width="160" relative="1" as="geometry">
            <mxPoint x="580" y="30" as="sourcePoint" />
            <mxPoint x="590" y="158" as="targetPoint" />
          </mxGeometry>
        </mxCell>
        <mxCell id="Epo-QqoAf33ydnhm44_M-26" value="GreetingSharedViewModel" style="swimlane;fontStyle=1;align=center;verticalAlign=top;childLayout=stackLayout;horizontal=1;startSize=26;horizontalStack=0;resizeParent=1;resizeParentMax=0;resizeLast=0;collapsible=1;marginBottom=0;whiteSpace=wrap;html=1;" vertex="1" parent="1">
          <mxGeometry x="450" y="24" width="260" height="86" as="geometry" />
        </mxCell>
        <mxCell id="Epo-QqoAf33ydnhm44_M-27" value="+ loadPhrases(): Unit" style="text;strokeColor=none;fillColor=none;align=left;verticalAlign=top;spacingLeft=4;spacingRight=4;overflow=hidden;rotatable=0;points=[[0,0.5],[1,0.5]];portConstraint=eastwest;whiteSpace=wrap;html=1;" vertex="1" parent="Epo-QqoAf33ydnhm44_M-26">
          <mxGeometry y="26" width="260" height="26" as="geometry" />
        </mxCell>
        <mxCell id="Epo-QqoAf33ydnhm44_M-28" value="" style="line;strokeWidth=1;fillColor=none;align=left;verticalAlign=middle;spacingTop=-1;spacingLeft=3;spacingRight=3;rotatable=0;labelPosition=right;points=[];portConstraint=eastwest;strokeColor=inherit;" vertex="1" parent="Epo-QqoAf33ydnhm44_M-26">
          <mxGeometry y="52" width="260" height="8" as="geometry" />
        </mxCell>
        <mxCell id="Epo-QqoAf33ydnhm44_M-29" value="+ observePhrases((List&amp;lt;String&amp;gt;) -&amp;gt; Unit): Unit" style="text;strokeColor=none;fillColor=none;align=left;verticalAlign=top;spacingLeft=4;spacingRight=4;overflow=hidden;rotatable=0;points=[[0,0.5],[1,0.5]];portConstraint=eastwest;whiteSpace=wrap;html=1;" vertex="1" parent="Epo-QqoAf33ydnhm44_M-26">
          <mxGeometry y="60" width="260" height="26" as="geometry" />
        </mxCell>
        <mxCell id="Epo-QqoAf33ydnhm44_M-30" value="Android 用" style="shape=note;whiteSpace=wrap;html=1;backgroundOutline=1;darkOpacity=0.05;size=12;" vertex="1" parent="1">
          <mxGeometry x="760" y="-46" width="80" height="56" as="geometry" />
        </mxCell>
        <mxCell id="Epo-QqoAf33ydnhm44_M-31" value="iOS 用" style="shape=note;whiteSpace=wrap;html=1;backgroundOutline=1;darkOpacity=0.05;size=12;" vertex="1" parent="1">
          <mxGeometry x="760" y="24" width="80" height="56" as="geometry" />
        </mxCell>
        <mxCell id="Epo-QqoAf33ydnhm44_M-32" value="" style="endArrow=none;html=1;rounded=0;exitX=0.923;exitY=0.5;exitDx=0;exitDy=0;exitPerimeter=0;entryX=0;entryY=0.5;entryDx=0;entryDy=0;entryPerimeter=0;" edge="1" parent="1" source="Epo-QqoAf33ydnhm44_M-27" target="Epo-QqoAf33ydnhm44_M-30">
          <mxGeometry width="50" height="50" relative="1" as="geometry">
            <mxPoint x="710" y="20" as="sourcePoint" />
            <mxPoint x="760" y="-30" as="targetPoint" />
          </mxGeometry>
        </mxCell>
        <mxCell id="Epo-QqoAf33ydnhm44_M-33" value="" style="endArrow=none;html=1;rounded=0;exitX=0.808;exitY=0.769;exitDx=0;exitDy=0;exitPerimeter=0;entryX=0;entryY=0.5;entryDx=0;entryDy=0;entryPerimeter=0;" edge="1" parent="1" target="Epo-QqoAf33ydnhm44_M-31">
          <mxGeometry width="50" height="50" relative="1" as="geometry">
            <mxPoint x="690" y="90" as="sourcePoint" />
            <mxPoint x="790" y="-10" as="targetPoint" />
          </mxGeometry>
        </mxCell>
        <mxCell id="Epo-QqoAf33ydnhm44_M-34" value="PlatformSource" style="swimlane;fontStyle=1;align=center;verticalAlign=top;childLayout=stackLayout;horizontal=1;startSize=26;horizontalStack=0;resizeParent=1;resizeParentMax=0;resizeLast=0;collapsible=1;marginBottom=0;whiteSpace=wrap;html=1;" vertex="1" parent="1">
          <mxGeometry x="1040" y="234" width="170" height="52" as="geometry" />
        </mxCell>
        <mxCell id="Epo-QqoAf33ydnhm44_M-35" value="+ getPlatformName():&amp;nbsp; String" style="text;strokeColor=none;fillColor=none;align=left;verticalAlign=top;spacingLeft=4;spacingRight=4;overflow=hidden;rotatable=0;points=[[0,0.5],[1,0.5]];portConstraint=eastwest;whiteSpace=wrap;html=1;" vertex="1" parent="Epo-QqoAf33ydnhm44_M-34">
          <mxGeometry y="26" width="170" height="26" as="geometry" />
        </mxCell>
        <mxCell id="Epo-QqoAf33ydnhm44_M-36" value="PlatformSourceContract" style="swimlane;fontStyle=1;align=center;verticalAlign=top;childLayout=stackLayout;horizontal=1;startSize=26;horizontalStack=0;resizeParent=1;resizeParentMax=0;resizeLast=0;collapsible=1;marginBottom=0;whiteSpace=wrap;html=1;" vertex="1" parent="1">
          <mxGeometry x="1040" y="160" width="170" height="34" as="geometry" />
        </mxCell>
        <mxCell id="Epo-QqoAf33ydnhm44_M-37" value="" style="line;strokeWidth=1;fillColor=none;align=left;verticalAlign=middle;spacingTop=-1;spacingLeft=3;spacingRight=3;rotatable=0;labelPosition=right;points=[];portConstraint=eastwest;strokeColor=inherit;" vertex="1" parent="Epo-QqoAf33ydnhm44_M-36">
          <mxGeometry y="26" width="170" height="8" as="geometry" />
        </mxCell>
        <mxCell id="Epo-QqoAf33ydnhm44_M-38" value="" style="endArrow=block;dashed=1;endFill=0;endSize=12;html=1;rounded=0;entryX=0.5;entryY=1;entryDx=0;entryDy=0;" edge="1" parent="1" source="Epo-QqoAf33ydnhm44_M-34" target="Epo-QqoAf33ydnhm44_M-36">
          <mxGeometry width="160" relative="1" as="geometry">
            <mxPoint x="1060" y="374" as="sourcePoint" />
            <mxPoint x="1220" y="374" as="targetPoint" />
          </mxGeometry>
        </mxCell>
        <mxCell id="Epo-QqoAf33ydnhm44_M-39" value="Use" style="endArrow=open;endSize=12;dashed=1;html=1;rounded=0;exitX=1;exitY=0.25;exitDx=0;exitDy=0;entryX=0;entryY=0.5;entryDx=0;entryDy=0;" edge="1" parent="1" source="Epo-QqoAf33ydnhm44_M-16">
          <mxGeometry width="160" relative="1" as="geometry">
            <mxPoint x="940" y="242" as="sourcePoint" />
            <mxPoint x="1040" y="172" as="targetPoint" />
          </mxGeometry>
        </mxCell>
      </root>
    </mxGraphModel>
  </diagram>
</mxfile>
